PathFileType	3	(X/Y/Z)	F:\ViconData\AntennenMessung\Messung1\Session1\ID01.trc
DataRate	CameraRate	NumFrames	NumMarkers	Units	OrigDataRate	OrigDataStartFrame	OrigNumFrames
120.0	120.0	5	70	mm	120.0	240	957	
Frame#	Time	Ashort			Along			Atop			A4			Bshort			Blong			Btop			B4			Cshort			Clong			Ctop			C4			Dshort			Dlong			Dtop			D4			Eshort			Elong			Etop			E4			Fshort			Flong			Ftop			F4			Gshort			Glong			Gtop			G4			Hshort			Hlong			Htop			H4			I1			I2			I3			I4			I5			WandAshort			WandAlong			WandAtop			WandA4			WandA15			WandBshort			WandB4			WandB5			WandBtop			WandBlong			WandCshort			WandClong			WandCtop			WandC4			WandC5			Acenter			Aantenna			Bcenter			Bantenna			Ccenter			Cantenna			Dcenter			Dantenna			Ecenter			Eantenna			Fcenter			Fantenna			Gcenter			Gantenna			Hcenter			Hantenna			Icenter			Iantenna			
		X1	Y1	Z1	X2	Y2	Z2	X3	Y3	Z3	X4	Y4	Z4	X5	Y5	Z5	X6	Y6	Z6	X7	Y7	Z7	X8	Y8	Z8	X9	Y9	Z9	X10	Y10	Z10	X11	Y11	Z11	X12	Y12	Z12	X13	Y13	Z13	X14	Y14	Z14	X15	Y15	Z15	X16	Y16	Z16	X17	Y17	Z17	X18	Y18	Z18	X19	Y19	Z19	X20	Y20	Z20	X21	Y21	Z21	X22	Y22	Z22	X23	Y23	Z23	X24	Y24	Z24	X25	Y25	Z25	X26	Y26	Z26	X27	Y27	Z27	X28	Y28	Z28	X29	Y29	Z29	X30	Y30	Z30	X31	Y31	Z31	X32	Y32	Z32	X33	Y33	Z33	X34	Y34	Z34	X35	Y35	Z35	X36	Y36	Z36	X37	Y37	Z37	X38	Y38	Z38	X39	Y39	Z39	X40	Y40	Z40	X41	Y41	Z41	X42	Y42	Z42	X43	Y43	Z43	X44	Y44	Z44	X45	Y45	Z45	X46	Y46	Z46	X47	Y47	Z47	X48	Y48	Z48	X49	Y49	Z49	X50	Y50	Z50	X51	Y51	Z51	X52	Y52	Z52	X53	Y53	Z53	X54	Y54	Z54	X55	Y55	Z55	X56	Y56	Z56	X57	Y57	Z57	X58	Y58	Z58	X59	Y59	Z59	X60	Y60	Z60	X61	Y61	Z61	X62	Y62	Z62	X63	Y63	Z63	X64	Y64	Z64	X65	Y65	Z65	X66	Y66	Z66	X67	Y67	Z67	X68	Y68	Z68	X69	Y69	Z69	X70	Y70	Z70	
240	1.9916667	-1038.1969	214.39217	-1644.2007	-1109.1581	203.19679	-1599.6681	-1063.4667	173.26627	-1625.6382	-1054.1039	262.04572	-1634.9557	-1352.899	235.33636	1003.9983	-1281.2689	227.06926	1052.4277	-1323.0579	194.19786	1020.8615	-1284.5592	287.90387	1052.7903	814.26276	187.49721	1209.3906	892.35663	178.4704	1179.2621	844.32867	145.62421	1198.0137	860.62982	292.37454	1167.166	1115.8607	209.81978	-1401.7338	1056.3088	194.25658	-1460.2816	1095.0645	162.17857	-1423.7495	1069.9062	238.61961	-1425.9167	-1204.5524	1686.0226	-1563.1547	-1129.097	1688.1953	-1605.995	-1173.0966	1724.4154	-1581.9868	-1133.533	1581.1434	-1603.526	-1239.6498	1699.2582	1119.2305	-1309.3195	1698.7993	1071.7424	-1270.3389	1736.2411	1096.6631	-1244.6128	1594.035	1106.4191	988.8772	1664.2509	1162.2736	957.51141	1700.3105	1183.7076	921.85437	1662.286	1214.774	939.82056	1659.3656	1159.9329	999.2652	1668.561	-1579.4746	1059.0022	1670.178	-1518.6482	1025.131	1708.0109	-1551.1431	1059.354	1672.1874	-1585.5463	-544.94806	141.44344	-348.90149	-539.27722	147.29327	-432.46606	-573.63007	143.3056	-386.87878	-495.07196	141.92416	-383.02048	-541.59344	107.14981	-389.58307																																														-1068.7928	209.56511	-1624.9996	-1074.454	248.14609	-1624.3212	-1321.6223	231.72659	1025.1445	-1320.1414	270.44711	1029.5637	848.07379	183.589	1196.3463	851.89874	222.36362	1194.6436	1088.885	202.77002	-1428.2544	1083.0509	241.09584	-1432.5078	-1171.8633	1686.9639	-1581.7141	-1170.5798	1647.9861	-1581.4304	-1270.9391	1699.0521	1097.903	-1271.5682	1660.0789	1099.2025	952.78815	1705.7406	1186.9352	972.83899	1733.9071	1168.8905	1026.6422	1669.302	-1551.598	1028.1636	1630.3344	-1552.0563	-542.51715	143.95102	-384.72223	-503.61884	144.75793	-382.02603
241	2	-1038.1588	214.26997	-1644.2245	-1109.2712	203.38406	-1599.5814	-1063.5608	173.24504	-1625.5951	-1054.0903	262.04962	-1634.9377	-1352.9875	235.10934	1004.0308	-1281.2825	226.97388	1052.4467	-1323.1229	194.20695	1020.8207	-1284.5062	287.97485	1052.7158	814.22198	187.43365	1209.2701	892.39502	178.51118	1179.2144	844.30811	145.64249	1198.0664	860.6731	292.53873	1167.0646	1115.8497	209.80312	-1401.7345	1056.2599	194.18303	-1460.202	1095.0144	162.09344	-1423.7688	1069.9458	238.71692	-1425.943	-1204.5673	1686.0054	-1563.1442	-1129.0953	1688.194	-1606.0066	-1173.0825	1724.4305	-1581.9977	-1133.554	1581.1549	-1603.538	-1239.6831	1699.2896	1119.2428	-1309.3466	1698.8551	1071.7528	-1270.3224	1736.1885	1096.6434	-1246.54	1592.4882	1108.8588	988.8623	1664.2249	1162.2753	957.4411	1700.3694	1183.6343	921.70508	1662.3242	1214.7511	939.80884	1659.3674	1159.9093	999.26019	1668.5715	-1579.4915	1058.9841	1670.1696	-1518.6492	1025.1234	1708.0143	-1551.1356	1059.3564	1672.1414	-1585.4357	-544.94348	141.45786	-348.91	-539.28021	147.28697	-432.46384	-573.64539	143.31665	-386.87369	-495.07422	141.9198	-383.01245	-541.61182	107.22446	-389.53271																																														-1068.7592	209.58565	-1625.014	-1074.2811	248.18782	-1624.3971	-1321.7765	231.56822	1025.1046	-1320.3811	270.28955	1029.5444	847.95898	183.58299	1196.299	851.69061	222.36201	1194.4924	1088.7941	202.71114	-1428.2804	1082.9257	241.0314	-1432.5369	-1171.8431	1686.9542	-1581.729	-1170.5542	1647.9766	-1581.4497	-1270.9614	1699.0944	1097.92	-1271.6328	1660.1232	1099.2612	952.72925	1705.7893	1186.8372	972.80896	1733.9213	1168.7705	1026.6356	1669.304	-1551.6033	1028.1581	1630.3365	-1552.0742	-542.5163	143.95607	-384.71918	-503.61752	144.75508	-382.02692
242	2.0083333	-1038.1857	214.3699	-1644.1876	-1109.205	203.19754	-1599.6779	-1063.4928	172.43494	-1625.6069	-1054.0785	262.04855	-1634.9194	-1352.9824	235.118	1003.9396	-1281.2538	227.09303	1052.4116	-1323.1123	194.19066	1020.8348	-1284.5648	287.92249	1052.8383	814.17212	187.56151	1209.3461	892.38727	178.48532	1179.2063	844.52161	145.4118	1198.1162	860.57971	292.3656	1167.292	1115.8523	209.79323	-1401.7268	1056.3358	194.23872	-1460.2527	1095.0494	162.21835	-1423.7753	1069.8868	238.62852	-1425.9034	-1204.5637	1686.0092	-1563.1483	-1129.0929	1688.1771	-1605.9918	-1173.0868	1724.4274	-1581.9983	-1133.5562	1581.1305	-1603.5232	-1239.6619	1699.2687	1119.2329	-1309.3741	1698.8768	1071.7584	-1270.2938	1736.1692	1096.6327	-1244.9885	1593.4291	1106.8401	988.88452	1664.2549	1162.2825	957.48364	1700.444	1183.6387	921.94507	1662.3429	1214.7782	939.7995	1659.4019	1159.9299	999.24963	1668.5634	-1579.476	1058.9889	1670.1671	-1518.6448	1025.1282	1708.0129	-1551.1362	1059.3369	1672.1816	-1585.536	-544.97668	141.45999	-348.89828	-539.27539	147.28035	-432.4595	-573.71259	143.65814	-386.76898	-495.14911	142.23457	-383.4985	-541.58148	107.23546	-389.53571																																														-1068.9072	209.53694	-1624.9333	-1074.5383	248.12192	-1624.233	-1321.7634	231.62523	1025.0365	-1320.3679	270.35706	1029.3838	848.22491	183.60995	1196.2239	851.98389	222.38084	1194.3032	1088.8694	202.7413	-1428.2606	1083.0245	241.06677	-1432.5027	-1171.8513	1686.9487	-1581.7185	-1170.5664	1647.9711	-1581.4276	-1270.9607	1699.0928	1097.9181	-1271.6616	1660.1226	1099.2689	952.89484	1705.7322	1186.7595	972.94116	1733.8358	1168.6118	1026.6323	1669.2983	-1551.5928	1028.1464	1630.3304	-1552.0522	-542.53931	143.94827	-384.62183	-503.63315	144.31035	-381.94208
243	2.0166667	-1038.1973	214.39146	-1644.2001	-1109.2375	203.37553	-1599.5941	-1063.6683	172.77113	-1625.3646	-1054.1095	262.03104	-1634.9246	-1353.011	235.09413	1004.0257	-1281.3627	227.1962	1052.2806	-1323.1165	194.2206	1020.8768	-1284.5325	287.97092	1052.7799	814.20856	187.57771	1209.313	892.20465	178.48682	1179.2627	844.27246	145.59967	1198.1449	860.56146	292.34268	1167.1602	1115.8441	209.81772	-1401.7272	1056.2643	194.16721	-1460.2191	1094.9188	162.05917	-1423.7673	1069.8956	238.67232	-1425.9359	-1204.5665	1686.0209	-1563.1283	-1129.1337	1688.3296	-1606.5372	-1173.0811	1724.4207	-1582.0013	-1133.5131	1581.1216	-1603.4918	-1239.6252	1699.1973	1119.2162	-1309.335	1698.8574	1071.7576	-1270.3047	1736.1986	1096.645	-1244.9581	1593.3663	1106.8026	988.8847	1664.2477	1162.2854	957.41138	1700.423	1183.6642	921.86401	1662.3123	1214.725	939.8299	1659.3834	1160.002	999.2478	1668.5776	-1579.4857	1058.9937	1670.1711	-1518.649	1025.1227	1708.0022	-1551.1359	1059.3513	1672.192	-1585.5433	-544.95569	141.45422	-348.91986	-539.27466	147.28915	-432.47302	-573.73798	143.5159	-386.78476	-495.07864	141.90111	-382.99136	-541.61102	107.20855	-389.48035																																														-1069.0452	209.60799	-1624.8306	-1074.6776	248.19508	-1624.2712	-1321.7987	231.65353	1025.0471	-1320.4352	270.39008	1029.3625	847.9939	183.63983	1196.2961	851.78674	222.40919	1194.4119	1088.7349	202.69662	-1428.3416	1082.9036	241.0162	-1432.6548	-1171.895	1687.0206	-1581.9296	-1170.6589	1648.0404	-1581.8549	-1270.9644	1699.0444	1097.8802	-1271.6565	1660.0721	1099.176	952.79633	1705.7274	1186.7991	972.84241	1733.8633	1168.7012	1026.6304	1669.308	-1551.6031	1028.1488	1630.3403	-1552.0739	-542.52747	143.9482	-384.63245	-503.62354	144.48706	-381.94962
244	2.025	-1038.2308	214.34122	-1644.1801	-1109.2467	203.40273	-1599.6106	-1063.6509	172.78903	-1625.3773	-1054.0962	262.05212	-1634.9474	-1352.9423	235.12502	1003.9066	-1281.2605	227.01854	1052.4492	-1323.0516	194.23764	1020.8168	-1284.4569	287.91046	1052.7229	814.1936	187.33012	1209.3619	892.14795	178.41864	1179.3043	844.52692	145.31964	1198.1393	860.63959	292.37939	1167.2227	1115.8531	209.82938	-1401.7419	1056.2528	194.18713	-1460.1921	1095.0229	162.22014	-1423.7987	1069.9196	238.68336	-1425.9473	-1204.5759	1686.0179	-1563.1218	-1129.1017	1688.3115	-1606.5421	-1173.0861	1724.4447	-1582.0076	-1133.5118	1581.1035	-1603.45	-1239.7041	1699.3368	1119.2582	-1309.3561	1698.8695	1071.7692	-1270.2957	1736.1659	1096.6296	-1245.2289	1593.4082	1106.7516	988.90631	1664.2722	1162.2452	957.42419	1700.3959	1183.6152	921.91876	1662.3191	1214.7701	939.82501	1659.3567	1159.9703	999.26825	1668.5736	-1579.4753	1058.9943	1670.1638	-1518.6418	1025.1196	1708.0067	-1551.1344	1059.3489	1672.1893	-1585.5397	-544.95953	141.48697	-348.90182	-539.28491	147.29004	-432.45999	-573.65759	143.29965	-386.83344	-495.14816	142.23303	-383.49841	-541.60468	107.15192	-389.60147																																														-1069.0016	209.60162	-1624.8683	-1074.6108	248.19246	-1624.3347	-1321.7021	231.59209	1025.0623	-1320.3032	270.31769	1029.4634	848.16248	183.4469	1196.2642	851.86005	222.22435	1194.3571	1088.7897	202.72652	-1428.2831	1082.8934	241.0441	-1432.5251	-1171.8986	1687.011	-1581.9209	-1170.6621	1648.0306	-1581.8307	-1270.9503	1699.1271	1097.9542	-1271.6392	1660.1581	1099.348	952.75696	1705.7512	1186.7832	972.74463	1733.9015	1168.6436	1026.6304	1669.3021	-1551.6057	1028.1514	1630.3346	-1552.0804	-542.53021	143.97124	-384.67282	-503.63284	144.81047	-381.97287
